<?xml version="1.0" encoding="UTF-8" standalone="no"?>
<svg
   xmlns:dc="http://purl.org/dc/elements/1.1/"
   xmlns:cc="http://creativecommons.org/ns#"
   xmlns:rdf="http://www.w3.org/1999/02/22-rdf-syntax-ns#"
   xmlns:svg="http://www.w3.org/2000/svg"
   xmlns="http://www.w3.org/2000/svg"
   xmlns:xlink="http://www.w3.org/1999/xlink"
   xmlns:sodipodi="http://sodipodi.sourceforge.net/DTD/sodipodi-0.dtd"
   xmlns:inkscape="http://www.inkscape.org/namespaces/inkscape"
   inkscape:export-ydpi="96"
   inkscape:export-xdpi="96"
   inkscape:export-filename="./thumb-kia.png"
   sodipodi:docname="thumb-kia.svg"
   inkscape:version="1.0.2 (e86c870879, 2021-01-15, custom)"
   version="1.1"
   id="svg4140"
   viewBox="0 0 200 200"
   height="200"
   width="200">
  <defs
     id="defs4142">
    <linearGradient
       id="linearGradient4230"
       inkscape:collect="always">
      <stop
         id="stop4232"
         offset="0"
         style="stop-color:#ffffff;stop-opacity:0" />
      <stop
         id="stop4234"
         offset="1"
         style="stop-color:#ffffff;stop-opacity:1" />
    </linearGradient>
    <radialGradient
       gradientUnits="userSpaceOnUse"
       gradientTransform="matrix(1.2269319,0.09560511,-0.03844623,0.49339306,36.213199,453.91399)"
       r="62.758167"
       fy="916.95465"
       fx="-104.29246"
       cy="916.95465"
       cx="-104.29246"
       id="radialGradient4236"
       xlink:href="#linearGradient4230"
       inkscape:collect="always" />
    <linearGradient
       gradientUnits="userSpaceOnUse"
       gradientTransform="scale(0.86410846,1.1572621)"
       id="g"
       y1="65.160691"
       x2="153.33781"
       x1="153.33781"
       y2="163.82805">
      <stop
         stop-color="#58B0E3"
         offset="0"
         id="stop4242" />
      <stop
         stop-color="#F44C26"
         offset="1"
         id="stop4244" />
    </linearGradient>
  </defs>
  <sodipodi:namedview
     inkscape:snap-global="false"
     inkscape:document-rotation="0"
     inkscape:snap-nodes="true"
     inkscape:snap-bbox="true"
     inkscape:snap-object-midpoints="false"
     inkscape:snap-to-guides="true"
     inkscape:snap-grids="true"
     showguides="false"
     inkscape:snap-smooth-nodes="true"
     inkscape:snap-center="true"
     inkscape:window-maximized="1"
     inkscape:window-y="-8"
     inkscape:window-x="1912"
     inkscape:window-height="1336"
     inkscape:window-width="2560"
     inkscape:snap-text-baseline="true"
     inkscape:object-nodes="true"
     units="px"
     showgrid="true"
     inkscape:current-layer="layer1"
     inkscape:document-units="px"
     inkscape:cy="99.643736"
     inkscape:cx="107.51349"
     inkscape:zoom="2.8"
     inkscape:pageshadow="2"
     inkscape:pageopacity="1"
     borderopacity="1.0"
     bordercolor="#666666"
     pagecolor="#889ec5"
     id="base">
    <inkscape:grid
       enabled="false"
       empspacing="10"
       spacingy="1"
       spacingx="1"
       id="grid4688"
       type="xygrid" />
    <sodipodi:guide
       inkscape:locked="false"
       id="guide4195"
       orientation="-0.70710678,0.70710678"
       position="-115.66247,220" />
  </sodipodi:namedview>
  <metadata
     id="metadata4145">
    <rdf:RDF>
      <cc:Work
         rdf:about="">
        <dc:format>image/svg+xml</dc:format>
        <dc:type
           rdf:resource="http://purl.org/dc/dcmitype/StillImage" />
        <dc:title></dc:title>
      </cc:Work>
    </rdf:RDF>
  </metadata>
  <g
     transform="translate(0,-852.36216)"
     id="layer1"
     inkscape:groupmode="layer"
     inkscape:label="Layer 1">
    <text
       id="text4708"
       y="1040.3622"
       x="100"
       style="font-style:normal;font-weight:normal;line-height:0%;font-family:sans-serif;text-align:center;letter-spacing:0px;word-spacing:0px;text-anchor:middle;fill:#ffffff;fill-opacity:1;stroke:none;stroke-width:1px;stroke-linecap:butt;stroke-linejoin:miter;stroke-opacity:1"
       xml:space="preserve"><tspan
         id="tspan4151"
         style="font-style:italic;font-variant:normal;font-weight:normal;font-stretch:normal;font-size:32px;line-height:100%;font-family:'Ubuntu Condensed SemiItalic';-inkscape-font-specification:'Ubuntu Condensed SemiItalic Italic';text-align:center;text-anchor:middle;fill:#ffffff;fill-opacity:1"
         y="1040.3622"
         x="100"
         sodipodi:role="line">Apollo</tspan></text>
    <circle
       r="50"
       cy="942.36212"
       cx="100"
       id="path4151"
       style="color:#000000;clip-rule:nonzero;display:inline;overflow:visible;visibility:visible;opacity:1;isolation:auto;mix-blend-mode:normal;color-interpolation:sRGB;color-interpolation-filters:linearRGB;solid-color:#000000;solid-opacity:1;fill:#ffffff;fill-opacity:1;fill-rule:nonzero;stroke:none;stroke-width:1;stroke-linecap:round;stroke-linejoin:round;stroke-miterlimit:4;stroke-dasharray:none;stroke-dashoffset:0;stroke-opacity:1;marker:none;color-rendering:auto;image-rendering:auto;shape-rendering:auto;text-rendering:auto;enable-background:accumulate" />
    <circle
       r="15"
       cy="921.36212"
       cx="121"
       id="path4153"
       style="color:#000000;clip-rule:nonzero;display:inline;overflow:visible;visibility:visible;opacity:1;isolation:auto;mix-blend-mode:normal;color-interpolation:sRGB;color-interpolation-filters:linearRGB;solid-color:#000000;solid-opacity:1;fill:#889ec5;fill-opacity:1;fill-rule:nonzero;stroke:none;stroke-width:1;stroke-linecap:round;stroke-linejoin:round;stroke-miterlimit:4;stroke-dasharray:none;stroke-dashoffset:0;stroke-opacity:1;marker:none;color-rendering:auto;image-rendering:auto;shape-rendering:auto;text-rendering:auto;enable-background:accumulate" />
    <circle
       style="color:#000000;clip-rule:nonzero;display:inline;overflow:visible;visibility:visible;opacity:1;isolation:auto;mix-blend-mode:normal;color-interpolation:sRGB;color-interpolation-filters:linearRGB;solid-color:#000000;solid-opacity:1;fill:#ffffff;fill-opacity:1;fill-rule:nonzero;stroke:none;stroke-width:1;stroke-linecap:round;stroke-linejoin:round;stroke-miterlimit:4;stroke-dasharray:none;stroke-dashoffset:0;stroke-opacity:1;marker:none;color-rendering:auto;image-rendering:auto;shape-rendering:auto;text-rendering:auto;enable-background:accumulate"
       id="circle4182"
       cx="150.49998"
       cy="891.86212"
       r="14.499981" />
    <path
       sodipodi:arc-type="arc"
       d="m 356.29143,909.86214 a 64.999962,64.999962 0 0 1 -16.72214,84.06792 64.999962,64.999962 0 0 1 -85.53139,-5.60602 64.999962,64.999962 0 0 1 -5.60602,-85.53139 64.999962,64.999962 0 0 1 84.06792,-16.72215"
       sodipodi:open="true"
       sodipodi:end="5.2359878"
       sodipodi:start="5.7595865"
       sodipodi:ry="64.999962"
       sodipodi:rx="64.999962"
       sodipodi:cy="942.36212"
       sodipodi:cx="299.99982"
       sodipodi:type="arc"
       id="path4193"
       style="color:#000000;clip-rule:nonzero;display:inline;overflow:visible;visibility:visible;opacity:1;isolation:auto;mix-blend-mode:normal;color-interpolation:sRGB;color-interpolation-filters:linearRGB;solid-color:#000000;solid-opacity:1;fill:none;fill-opacity:1;fill-rule:nonzero;stroke:#ffffff;stroke-width:2;stroke-linecap:round;stroke-linejoin:miter;stroke-miterlimit:4;stroke-dasharray:8, 8;stroke-dashoffset:1;stroke-opacity:0.392157;marker:none;color-rendering:auto;image-rendering:auto;shape-rendering:auto;text-rendering:auto;enable-background:accumulate" />
    <g
       inkscape:transform-center-y="-6"
       id="g4202">
      <path
         style="color:#000000;clip-rule:nonzero;display:inline;overflow:visible;visibility:visible;opacity:1;isolation:auto;mix-blend-mode:normal;color-interpolation:sRGB;color-interpolation-filters:linearRGB;solid-color:#000000;solid-opacity:1;fill:#ffffff;fill-opacity:1;fill-rule:nonzero;stroke:none;stroke-width:1;stroke-linecap:round;stroke-linejoin:round;stroke-miterlimit:4;stroke-dasharray:none;stroke-dashoffset:0;stroke-opacity:1;marker:none;color-rendering:auto;image-rendering:auto;shape-rendering:auto;text-rendering:auto;enable-background:accumulate"
         d="m 240,842.36216 c -4.38244,0.29891 -4,4 -5,7 -1.29081,-2.99413 0.46302,-3.56832 -4,-7 l 4,-5 c -0.70726,-8.54082 1.1858,-15.02876 5,-20 l 1,14 z"
         id="path4198"
         inkscape:connector-curvature="0"
         sodipodi:nodetypes="ccccccc"
         inkscape:transform-center-x="4" />
      <use
         x="0"
         y="0"
         xlink:href="#path4198"
         inkscape:transform-center-x="-4"
         id="use4200"
         transform="matrix(-1,0,0,1,480,0)"
         width="100%"
         height="100%" />
    </g>
    <g
       style="opacity:0.4"
       id="g4226">
      <path
         sodipodi:nodetypes="cscsc"
         inkscape:connector-curvature="0"
         d="m -126.45932,896.53332 c 25.30916,-16.25437 59.678556,-7.67984 75.64829,17.42959 17.25731,27.13389 8.032635,63.87032 -18.899998,80.86129 -28.911449,18.2393 -67.958152,8.3814 -85.946422,-20.32816 -10.07459,-16.0792 -34.01966,-78.86553 -26.00288,-0.10123"
         transform="scale(-1,1)"
         inkscape:transform-center-y="4.89489"
         inkscape:transform-center-x="27.589193"
         style="color:#000000;clip-rule:nonzero;display:inline;overflow:visible;visibility:visible;opacity:1;isolation:auto;mix-blend-mode:normal;color-interpolation:sRGB;color-interpolation-filters:linearRGB;solid-color:#000000;solid-opacity:1;fill:none;fill-opacity:1;fill-rule:nonzero;stroke:url(#radialGradient4236);stroke-width:2;stroke-linecap:round;stroke-linejoin:miter;stroke-miterlimit:4;stroke-dasharray:8, 8;stroke-dashoffset:1;stroke-opacity:1;marker:none;color-rendering:auto;image-rendering:auto;shape-rendering:auto;text-rendering:auto;enable-background:accumulate"
         id="path4178" />
    </g>
    <use
       height="100%"
       width="100%"
       transform="matrix(-0.54079087,-0.08498469,0.08498469,-0.54079087,239.86225,1450.3329)"
       id="use4206"
       xlink:href="#g4202"
       y="0"
       x="0" />
    <g
       style="opacity:0.8"
       id="g4342">
      <rect
         ry="0"
         y="897.36218"
         x="0"
         height="90"
         width="30"
         id="rect4179"
         style="color:#000000;clip-rule:nonzero;display:inline;overflow:visible;visibility:visible;opacity:1;isolation:auto;mix-blend-mode:normal;color-interpolation:sRGB;color-interpolation-filters:linearRGB;solid-color:#000000;solid-opacity:1;fill:#889ec5;fill-opacity:1;fill-rule:nonzero;stroke:none;stroke-width:1;stroke-linecap:round;stroke-linejoin:round;stroke-miterlimit:4;stroke-dasharray:none;stroke-dashoffset:0;stroke-opacity:1;marker:none;color-rendering:auto;image-rendering:auto;shape-rendering:auto;text-rendering:auto;enable-background:accumulate" />
      <g
         style="opacity:1"
         id="g4177"
         transform="matrix(0.28600988,0,0,0.28600988,-188.64707,959.3987)">
        <circle
           id="circle4157"
           r="45.326"
           cy="45.326"
           cx="712.02698"
           style="fill:#ffffff;fill-opacity:1" />
        <path
           id="path4159"
           d="m 681.207,39.273 c -3.344,0 -6.053,2.709 -6.053,6.053 0,3.342 2.709,6.051 6.053,6.051 3.342,0 6.051,-2.709 6.051,-6.051 -0.001,-3.344 -2.71,-6.053 -6.051,-6.053 z m 43.207,27.504 c -2.895,1.672 -3.887,5.371 -2.215,8.264 1.67,2.895 5.369,3.887 8.264,2.215 2.895,-1.67 3.887,-5.369 2.215,-8.264 -1.671,-2.892 -5.372,-3.885 -8.264,-2.215 z M 694.351,45.326 c 0,-5.98 2.971,-11.264 7.516,-14.463 l -4.424,-7.41 c -5.295,3.539 -9.234,8.947 -10.871,15.281 1.91,1.559 3.133,3.932 3.133,6.592 0,2.658 -1.223,5.031 -3.133,6.59 1.635,6.336 5.574,11.744 10.871,15.283 l 4.424,-7.412 c -4.545,-3.197 -7.516,-8.48 -7.516,-14.461 z m 17.676,-17.678 c 9.234,0 16.811,7.08 17.605,16.109 l 8.623,-0.127 c -0.424,-6.666 -3.336,-12.65 -7.811,-17.051 -2.301,0.869 -4.959,0.736 -7.256,-0.588 -2.301,-1.328 -3.744,-3.568 -4.139,-6 -2.236,-0.617 -4.59,-0.955 -7.023,-0.955 -4.184,0 -8.139,0.982 -11.65,2.721 l 4.205,7.535 c 2.262,-1.052 4.786,-1.644 7.446,-1.644 z m 0,35.354 c -2.66,0 -5.184,-0.592 -7.445,-1.645 l -4.205,7.535 c 3.512,1.74 7.467,2.723 11.65,2.723 2.434,0 4.787,-0.338 7.023,-0.957 0.395,-2.432 1.838,-4.67 4.139,-6 2.299,-1.326 4.955,-1.457 7.256,-0.588 4.475,-4.4 7.387,-10.385 7.811,-17.051 l -8.625,-0.127 c -0.794,9.032 -8.37,16.11 -17.604,16.11 z m 12.385,-39.131 c 2.895,1.672 6.594,0.682 8.264,-2.213 1.672,-2.895 0.682,-6.594 -2.213,-8.266 -2.895,-1.67 -6.594,-0.678 -8.266,2.217 -1.67,2.893 -0.678,6.592 2.215,8.262 z"
           inkscape:connector-curvature="0"
           style="fill:#889ec5;fill-opacity:1" />
      </g>
      <g
         id="g4257"
         transform="matrix(0.09786263,0,0,0.09786263,2.0329998,929.39547)">
        <circle
           id="circle4246"
           r="132.5"
           cx="132.5"
           cy="132.5"
           style="fill:#ffffff" />
        <path
           id="path4248"
           d="m 193.4,50.94 h -8.05 l -52.61,76.03 h -0.48 L 79.769,50.94 h -8.168 l 56.699,81.8 -56.459,81.32 h 8.048 l 52.251,-75.79 h 0.48 l 52.25,75.79 h 8.17 l -56.46,-81.32 z"
           inkscape:connector-curvature="0"
           style="fill:url(#g)" />
      </g>
      <g
         transform="matrix(0.20503171,0,0,0.20503171,26.644364,888.60129)"
         id="g4186"
         style="fill:#ffffff;fill-opacity:1">
        <polygon
           points="41.727,0 18.502,3.389 18.502,20.219 41.727,20.219 "
           transform="matrix(2.535275,0,0,2.535275,-109.6877,62.23806)"
           id="svg_23"
           style="fill:#ffffff;fill-opacity:1" />
        <polygon
           points="0,6.087 0,20.219 16.865,20.219 16.865,3.627 "
           transform="matrix(2.535275,0,0,2.535275,-109.6877,62.23806)"
           id="svg_24"
           style="fill:#ffffff;fill-opacity:1" />
        <polygon
           points="0,36.167 16.865,38.655 16.865,21.855 0,21.855 "
           transform="matrix(2.535275,0,0,2.535275,-109.6877,62.23806)"
           id="svg_25"
           style="fill:#ffffff;fill-opacity:1" />
        <polygon
           points="41.727,42.323 41.727,21.855 18.502,21.855 18.502,38.897 "
           transform="matrix(2.535275,0,0,2.535275,-109.6877,62.23806)"
           id="svg_26"
           style="fill:#ffffff;fill-opacity:1" />
      </g>
      <image
         sodipodi:absref="C:\Dev\GameMaker\Assets\Tech\Apollo\export\gms\1x-30.png"
         xlink:href="gms/1x-30.png"
         y="852.36218"
         x="70"
         id="image4328"
         style="image-rendering:optimizeSpeed"
         preserveAspectRatio="none"
         height="30"
         width="30" />
      <image
         sodipodi:absref="C:\Dev\GameMaker\Assets\Tech\Apollo\export\gms\2x-38.png"
         xlink:href="gms/2x-38.png"
         y="848.36218"
         x="96"
         id="image4339"
         style="image-rendering:optimizeSpeed"
         preserveAspectRatio="none"
         height="38"
         width="38" />
    </g>
    <circle
       r="14.499981"
       cy="1012.3622"
       cx="175.50002"
       id="circle4182-2"
       style="color:#000000;clip-rule:nonzero;display:inline;overflow:visible;visibility:visible;opacity:1;isolation:auto;mix-blend-mode:normal;color-interpolation:sRGB;color-interpolation-filters:linearRGB;solid-color:#000000;solid-opacity:1;fill:#ffffff;fill-opacity:1;fill-rule:nonzero;stroke:none;stroke-width:1;stroke-linecap:round;stroke-linejoin:round;stroke-miterlimit:4;stroke-dasharray:none;stroke-dashoffset:0;stroke-opacity:1;marker:none;color-rendering:auto;image-rendering:auto;shape-rendering:auto;text-rendering:auto;enable-background:accumulate" />
    <path
       sodipodi:nodetypes="ccccc"
       inkscape:connector-curvature="0"
       id="path885"
       d="m 168.82262,1010.4736 21.33157,-2.8518 c 0.26494,3.3296 -8.21804,6.211 -9.20397,1.2511 l -2.27392,0.3015 c 0.61263,4.941 -9.55393,4.2439 -9.85368,1.2992 z"
       style="fill:#5e657c;fill-opacity:1;stroke:#5e657c;stroke-width:0.5;stroke-linecap:butt;stroke-linejoin:miter;stroke-miterlimit:4;stroke-dasharray:none;stroke-opacity:1" />
    <path
       sodipodi:nodetypes="cc"
       inkscape:connector-curvature="0"
       id="path896"
       d="m 177.52877,1015.2578 c 0.48498,0.8605 2.489,1.0398 4.55495,0.1537"
       style="font-variation-settings:normal;opacity:1;vector-effect:none;fill:none;fill-opacity:1;stroke:#5e657c;stroke-width:0.5;stroke-linecap:butt;stroke-linejoin:miter;stroke-miterlimit:4;stroke-dasharray:none;stroke-dashoffset:0;stroke-opacity:1;stop-color:#000000;stop-opacity:1" />
    <g
       id="g915">
      <rect
         transform="rotate(-45)"
         style="font-variation-settings:normal;opacity:1;vector-effect:none;fill:#ffffff;fill-opacity:1;stroke:none;stroke-width:0.5;stroke-linecap:butt;stroke-linejoin:miter;stroke-miterlimit:4;stroke-dasharray:none;stroke-dashoffset:0;stroke-opacity:1;stop-color:#000000;stop-opacity:1"
         id="rect912"
         width="9.5829639"
         height="0.90090513"
         x="-597.07758"
         y="836.68457" />
    </g>
    <use
       height="100%"
       width="100%"
       transform="translate(11.351571,-0.99924337)"
       id="use917"
       xlink:href="#g915"
       y="0"
       x="0" />
  </g>
  <g
     inkscape:label="Cool"
     id="layer2"
     inkscape:groupmode="layer" />
</svg>
